<?xml version="1.0" standalone="no"?><!DOCTYPE svg PUBLIC "-//W3C//DTD SVG 1.1//EN" "http://www.w3.org/Graphics/SVG/1.1/DTD/svg11.dtd"><svg t="1606898020282" class="icon" viewBox="0 0 1024 1024" version="1.1" xmlns="http://www.w3.org/2000/svg" p-id="1666" xmlns:xlink="http://www.w3.org/1999/xlink" width="400" height="400"><defs><style type="text/css"></style></defs><path d="M851.52 172.48a480 480 0 1 0 0 678.72 480 480 0 0 0 0-678.72z m-49.6 538.88L576 485.44v-320a352 352 0 0 1 225.92 544zM448 857.92a347.52 347.52 0 0 1-135.36-56L448 666.56z m128-192l135.36 135.36A347.52 347.52 0 0 1 576 857.92zM263.04 263.04a349.44 349.44 0 0 1 184.96-96v320l-225.92 224.32A352 352 0 0 1 263.04 263.04z" fill="#207dc9" p-id="1667"></path></svg>